<?xml version="1.0" encoding="UTF-8"?>
<svg id="Layer_1" data-name="Layer 1" xmlns="http://www.w3.org/2000/svg" viewBox="0 0 282.87 282.86">
  <defs>
    <style>
      .cls-1 {
        fill: none;
        stroke: #fff;
        stroke-width: 2px;
      }

      .cls-1, .cls-2, .cls-3 {
        stroke-miterlimit: 10;
      }

      .cls-2 {
        fill: #faaf40;
      }

      .cls-2, .cls-3 {
        stroke: #864721;
        stroke-width: 7px;
      }

      .cls-3 {
        fill: #864721;
      }
    </style>
  </defs>
  <g>
    <path class="cls-2" d="m279.37,141.43c0,76.18-61.75,137.93-137.93,137.93-76.18,0-137.93-61.75-137.93-137.93,0-16.12,2.77-31.6,7.85-45.98C30.29,41.88,81.38,3.5,141.43,3.5c76.18,0,137.93,61.75,137.93,137.93Z"/>
    <path class="cls-3" d="m37.98,126.11c-.49,18.06-7.07,21.25-3.83,30.65,2.68,7.77,10.58,16.11,19.16,15.33,7.44-.68,13.71-8.08,15.33-15.33,2.49-11.16-7.57-15.13-7.66-30.65-.07-12.02,5.89-20.62,7.66-22.99,2.7-3.61,7.14-9.57,15.33-11.49,9.8-2.31,17.73,2.86,19.16,3.83,9.37,6.37,11.21,17.29,11.49,19.16,1.54,10.25-3.69,14.5,0,22.99.47,1.08,3.31,7.63,7.66,7.66,3.66.03,6.55-4.56,7.66-7.66,1.32-3.67.51-6.28,0-11.49,0,0-.73-7.43,0-15.33.92-9.89,8.01-24.47,19.16-26.82,12.96-2.73,25.83,12.26,30.65,22.99,7.81,17.36.73,36.42,0,38.31-1.39,3.6-3.96,8.8-7.66,19.16-1.73,4.84-3.02,8.86-3.83,11.49-.73,1.9-3.03,8.61,0,15.33,4.37,9.69,16.11,11.12,19.16,11.49,10.81,1.32,24.62-3.31,26.82-11.49,1.35-5-2.58-7.83-7.66-19.16-.51-1.14-5.75-13.02-7.66-26.82-2.45-17.68,1.6-31.15,3.83-38.31,4.01-12.85,8.36-17,11.49-19.16,1.59-1.1,5.7-3.84,11.49-3.83,8.98.02,14.57,6.73,15.33,7.66,2.5,3.1,3.42,6.2,3.83,7.66,6.65,23.4,5.83,35.88,11.49,38.31,5.94,2.55,17.97-6.38,19.16-15.33.27-2.01-1.1-6.48-3.83-15.33-1.71-5.53-2.56-8.29-3.83-11.49-1.59-4-3.77-8.75-7.66-15.33-5.7-9.63-13.21-22.34-26.82-34.48-3.86-3.45-7.71-6.09-15.33-11.49-17.89-12.68-26.83-19.02-38.31-22.99-16.96-5.87-31.79-4.67-42.15-3.83-14.53,1.17-24.98,4.54-34.48,7.66-13.37,4.4-38.67,13.01-61.3,34.48-5.43,5.15-9.77,12.61-19.16,26.82-9.66,14.63-13.04,21.62-11.49,22.99,0,0,1.47-1.17,3.65-2.23,1.19-.58,4.31-1.97,7.85-1.6,3.88.41,6.49,2.77,7.66,3.83,7.75,7.02,7.79,22.02,7.66,26.82Z"/>
  </g>
  <path class="cls-1" d="m237.54,51.16c-6.96-7.18-17.27-16.3-31.36-24.38-15.61-8.95-30.1-13.32-40.43-15.58"/>
  <path class="cls-1" d="m242.89,56.87c2.53,2.63,5.16,5.62,7.78,9.01,1.51,1.95,2.88,3.86,4.13,5.71"/>
</svg>