<?xml version="1.0" encoding="UTF-8"?>
<svg id="Layer_1" data-name="Layer 1" xmlns="http://www.w3.org/2000/svg" viewBox="0 0 516.69 422.11">
  <defs>
    <style>
      .cls-1 {
        fill: #f49dc3;
        stroke: #f49dc3;
      }

      .cls-1, .cls-2, .cls-3, .cls-4, .cls-5, .cls-6, .cls-7, .cls-8 {
        stroke-miterlimit: 10;
      }

      .cls-1, .cls-3, .cls-5, .cls-6, .cls-8 {
        stroke-width: 5px;
      }

      .cls-2 {
        stroke-width: 6px;
      }

      .cls-2, .cls-3, .cls-8 {
        stroke: #f5f2aa;
      }

      .cls-2, .cls-4 {
        fill: none;
      }

      .cls-3 {
        fill: #f5f2aa;
      }

      .cls-4 {
        stroke: #fff;
      }

      .cls-5, .cls-6, .cls-7 {
        stroke: #864721;
      }

      .cls-5, .cls-7 {
        fill: #864721;
      }

      .cls-6, .cls-8 {
        fill: #faaf40;
      }
    </style>
  </defs>
  <g>
    <circle class="cls-8" cx="109.74" cy="109.74" r="107.24" transform="translate(-36.74 58.45) rotate(-25.7)"/>
    <path class="cls-3" d="m5.48,100.8c3.92,3.55,9.84,8.15,17.87,11.92,7.52,3.52,17.89,8,29.79,5.96,3.65-.63,10.48-2.45,17.87-8.94,15.17-13.31,26.8-14.42,35.75-14.89,9.02-.48,17.33,1.95,20.85,2.98,5.3,1.55,7.77,2.93,14.89,5.96,12.3,5.22,18.55,8.55,23.83,8.94,19.29,1.4,42.48-9.55,44.68-23.83.66-4.25-2.54-10.78-8.94-23.83-4.86-9.91-7.29-14.87-11.92-20.85-8.19-10.59-17.12-16.48-23.83-20.85-5.57-3.63-13.54-8.14-23.83-11.92-4.63-.79-11.09-1.74-18.84-2.41-10.01-.86-19.29-1.9-28.83-.57-18.61,2.61-31.5,10.41-38.72,14.89-17.09,10.6-26.93,23.05-29.79,26.81-14.93,19.68-19.34,39.88-20.85,50.64Z"/>
  </g>
  <g>
    <circle class="cls-1" cx="406.95" cy="109.74" r="107.24" transform="translate(17.64 271.26) rotate(-37.62)"/>
    <path class="cls-1" d="m334.24,181.64c-1.95,3.05,8.81,14.6,19.92,21.46,6.78,4.19,13.62,6.59,17.55,7.95,3.29,1.14,8.65,2.94,15.96,4.2,24.13,4.14,38.93.18,51.26,9.01.62.44,1.52,1.05,2.55,2.07,6.57,6.52,7.88,16.13,8.94,23.83.28,2.04,1.13,8.94,0,17.87-1.57,12.39-5.26,15.44-2.98,20.85,2.19,5.2,8.43,9.11,14.89,8.94.48-.01,9.29-.36,11.92-5.96,2.72-5.8-4.17-10.93-8.94-26.81-1.08-3.59-2.51-8.45-2.98-14.89-.36-4.93-.78-15.45,5.96-32.77,6.72-17.26,11.31-17.76,23.83-41.7,4.77-9.12,8.52-16.29,11.92-26.81,5.12-15.85,5.64-27.42,5.96-35.75.27-7.27.5-13.16-.98-13.5-2.95-.68-7.21,22.15-19.87,43.29-4.75,7.93-19.65,32.93-47.66,44.68-33.41,14.01-70.36,3.76-83.41,0-11.68-3.36-22.14-8.62-23.83-5.96Z"/>
  </g>
  <g>
    <path class="cls-6" d="m365.58,152.2c0,59.23-48.01,107.24-107.24,107.24-59.23,0-107.24-48.01-107.24-107.24,0-12.53,2.15-24.57,6.1-35.75,14.72-41.65,54.44-71.49,101.14-71.49,59.23,0,107.24,48.01,107.24,107.24Z"/>
    <path class="cls-5" d="m177.92,140.28c-.38,14.04-5.49,16.52-2.98,23.83,2.08,6.04,8.23,12.52,14.89,11.92,5.79-.53,10.66-6.28,11.92-11.92,1.93-8.67-5.88-11.76-5.96-23.83-.06-9.35,4.58-16.03,5.96-17.87,2.1-2.81,5.55-7.44,11.92-8.94,7.62-1.79,13.78,2.22,14.89,2.98,7.29,4.95,8.72,13.44,8.94,14.89,1.2,7.97-2.87,11.27,0,17.87.36.84,2.57,5.93,5.96,5.96,2.84.02,5.09-3.54,5.96-5.96,1.02-2.85.4-4.89,0-8.94,0,0-.57-5.78,0-11.92.71-7.69,6.23-19.03,14.89-20.85,10.08-2.12,20.08,9.53,23.83,17.87,6.07,13.5.57,28.31,0,29.79-1.08,2.8-3.08,6.84-5.96,14.89-1.35,3.77-2.35,6.89-2.98,8.94-.57,1.48-2.36,6.69,0,11.92,3.4,7.54,12.53,8.65,14.89,8.94,8.41,1.02,19.14-2.57,20.85-8.94,1.05-3.89-2.01-6.09-5.96-14.89-.4-.89-4.47-10.12-5.96-20.85-1.9-13.74,1.24-24.22,2.98-29.79,3.12-9.99,6.5-13.22,8.94-14.89,1.24-.85,4.44-2.99,8.94-2.98,6.98.01,11.33,5.23,11.92,5.96,1.95,2.41,2.66,4.82,2.98,5.96,5.17,18.19,4.53,27.9,8.94,29.79,4.62,1.98,13.97-4.96,14.89-11.92.21-1.56-.85-5.04-2.98-11.92-1.33-4.3-1.99-6.45-2.98-8.94-1.23-3.11-2.93-6.8-5.96-11.92-4.43-7.49-10.27-17.36-20.85-26.81-3-2.68-5.99-4.74-11.92-8.94-13.91-9.86-20.86-14.79-29.79-17.87-13.19-4.56-24.72-3.63-32.77-2.98-11.3.91-19.42,3.53-26.81,5.96-10.39,3.42-30.07,10.11-47.66,26.81-4.22,4.01-7.6,9.8-14.89,20.85-7.51,11.37-10.14,16.81-8.94,17.87,0,0,1.15-.91,2.84-1.73.93-.45,3.35-1.53,6.1-1.25,3.02.32,5.05,2.15,5.96,2.98,6.03,5.46,6.06,17.12,5.96,20.85Z"/>
  </g>
  <line class="cls-2" x1="145.69" y1="60.21" x2="148.67" y2="60.21"/>
  <path class="cls-7" d="m79.12,397.68s-.3,3.57-2.24,6.73c-2.06,3.34-6.58,6.99-20.19,8.97-16.35,2.38-25.49,3.71-33.64-2.24-8.42-6.15-10.72-16.39-12.01-22.08-1.31-5.82-1.17-11.64-.9-23.27,0,0,.09-3.77.9-10.29.27-2.15.39-3.01.55-3.83.55-2.83,1.11-5.66,2.93-8.51.39-.61,2.02-3.09,5.16-5.18,4.31-2.86,8.6-3.08,10.1-3.1,4.74-.04,8.12,1.76,8.97,2.24,3.37,1.9,5.19,4.41,5.62,5.02,1.64,2.34,2.53,4.97,3.12,11.75.44,5.15.73,9.57.25,15.81-.3,3.9-.92,8.74-.02,14.51.41,2.65,1.23,3.77,2.24,4.49,1.72,1.21,3.93.82,5.26.59,2.8-.49,3.09-1.57,6.86-2.94,2.86-1.04,4.98-1.26,5.78-1.32,0,0,4.44-.35,6.71,1.39.02.01.04.03.05.04.18.14,1.32,1.04,2.24,2.24,2.57,3.36,2.35,7.7,2.24,8.97Z"/>
  <path class="cls-7" d="m147.45,399.86c-2.06,3.78-4.46,6.12-6.03,7.62-2.47,2.36-11.31,10.84-24.94,10.51-1.64-.04-14.01-.54-23.14-10.41-5.54-6-7.2-12.54-7.99-15.79-2.16-8.96-.46-16.15,0-17.94,1.9-7.4,5.66-12.17,6.73-13.46,5.05-6.13,10.87-8.75,12.7-9.51,1.39-.58,5.6-2.21,11.31-2.44,1.54-.06,6.61-.16,12.73,1.93,2.08.71,6.34,2.21,10.36,5.54,7.14,5.92,9.12,14.01,10.22,18.51,1.07,4.37,3.69,15.11-1.94,25.46Zm-27.17-18.45c-1.43-1.36-3.99-2.13-5.77-.85-1.86,1.33-1.67,4-1.24,5.41.13.41.95,3.13,3.47,3.6,1.91.36,3.77-.77,4.63-2.31,1.12-2.01.37-4.46-1.08-5.84Z"/>
  <path class="cls-7" d="m197.48,389.92c-.34-.32-1.34-1.25-2.58-1.12-1.04.11-1.73.92-1.91,1.12-1.68,1.97.04,5.37,1.01,11.61.74,4.78,1.12,7.51-.49,9.76-.96,1.33-2.3,2-5.01,3.31-1.01.49-3.56,1.65-7.09,2.29-2.83.52-5.01.47-6.37.43-2.98-.08-4.69-.13-6.63-1-.48-.22-2.55-1.14-4.5-3.73-2.96-3.94-3.81-8.67-4.57-15.93-.9-8.7-1.35-13.04-1.09-18.52.42-8.72,2.04-15.26,2.7-17.74,2.69-10.09,4.66-17.45,10.8-20.19,2.96-1.32,5.63-1.01,9.9-.51,4.19.48,13.21,1.53,15.82,7.62.88,2.04,1.55,5.88,0,8.97-.72,1.45-1.76,2.36-2.24,4.49-.41,1.81-.23,3.41,0,4.49.79,1.63,1.72,2.09,2.24,2.24,2.31.69,5.29-1.94,6.73-4.49,2.15-3.81.11-5.91,2.24-11.21.71-1.78,1.52-3.82,3.53-5.45,2.11-1.71,4.33-1.99,7.68-2.42,4.72-.6,8.36,0,10.67.39,4.12.69,6.41,1.08,8.86,2.89.91.67,3.05,2.3,4.15,5.19,1.32,3.46.39,6.68.07,7.76-1.93,6.4-7.97,9.37-12.95,16.74-.33.48-.89,1.34-1.22,2.58-.99,3.75,1.11,7.36,1.64,8.21.36.59,1.08,1.48,2.51,3.25,1.04,1.29,1.45,1.73,2.21,2.76.23.31.98,1.32,2,2.96,1.9,3.03,2.85,4.54,3.27,6.03.7,2.48.38,4.57.13,6.17-.24,1.58-.64,4.17-2.31,6.56-3.24,4.63-9.14,5.46-12.3,5.91-1.55.22-3.82.52-6.73,0-5.51-.99-9.12-4.17-10.68-5.78-2.78-2.87-3.97-5.83-4.89-8.1-1.6-3.98-2.21-7.94-2.31-8.61-.64-4.27-.32-7.05-2.31-8.91Z"/>
  <path class="cls-7" d="m324,410.53c-3.72.69-6.86.44-8.87.13-3.35-.52-5.98-.92-8.36-2.92-2.73-2.29-3.56-5.35-4.11-7.5-.95-3.7-.33-5.52.39-14.66.79-10.08.24-10.62,0-10.67-.73-.16-2.29,3.25-3.99,6.94-1.73,3.77-2.05,5.18-3.6,5.91-1.62.76-3.77.41-5.16-.62-1.42-1.05-1.32-2.25-2.81-5.43-.5-1.07-2.64-5.65-3.6-5.4-1.03.26-1.15,6.16.64,11.57.87,2.63,1.59,3.32,2.31,6.43.38,1.62.89,3.92.66,6.83-.13,1.6-.37,4.63-2.2,7.44-2.9,4.44-7.99,5.59-11.19,6.3-2.5.56-6.09,1.32-10.29-.13-1.08-.37-3.86-1.46-6.34-4.06-1.64-1.72-2.52-3.67-4.2-7.51-1.79-4.08-2.78-7.33-3.09-8.36-.64-2.15-1.64-5.61-2.18-10.13-.27-2.23-.27-5.68-.26-12.5,0-2.97.03-5.63.08-8.47.11-6.18.18-9.32.56-11.33.77-4.04,1.41-7.4,4.24-9.9,3.33-2.94,7.85-2.96,8.23-2.96.96,0,2.39.2,5.25.61.84.12,2.29.39,4.26.68,4.61.67,6.88,1.22,8.99,2.14,1.52.67,2.97,1.32,4.3,2.79.49.53.53.71,2.27,3.69,1.93,3.31,2.62,4.38,3.99,5.01,1.17.55,1.87.33,2.06.26.66-.24,1.03-.82,1.54-1.8,1.15-2.21,1.54-3.47,1.54-3.47.68-2.2,1.4-4.5,2.7-6.3,1.07-1.49,2.26-2.18,4.5-3.6,2.36-1.49,4.32-2.2,6.43-2.96,2.37-.84,5.3-1.87,9.26-2.19,2.98-.24,4.84-.2,6.83.77,3.53,1.73,4.95,5.54,7.19,11.83.65,1.81,1.34,3.67,2.02,6.9,2.16,10.29,3.24,15.43,3.51,19.71.3,4.77.09,8.08-.26,13.5-.38,5.94-1.01,10.4-2.83,15.17-1.05,2.76-2.06,4.46-3.73,5.79-1.97,1.57-4.03,1.95-6.69,2.44Z"/>
  <path class="cls-7" d="m398.52,396.79c-.55-1.56-.99-2.77-2.13-3.62-1.25-.93-2.69-.91-4.63-.9-1.38.01-2.65.26-5.14.77-4.17.85-5.16,1.3-5.64,1.54-1.36.68-2.66,1.32-3.36,2.7-.62,1.22-.4,2.25-.26,4.11.05.69.37,4.58-.26,6.69-.72,2.43-4.01,3.92-10.54,6.81-7.73,3.42-10.03,3.42-10.93,3.39-1.62-.05-5.05-.17-7.68-2.36-1.93-1.6-3.16-4.08-3.76-16.85-.35-7.49-.53-11.31-.07-17.08.75-9.38,2.57-16.21,3.03-17.89,1.84-6.72,3.31-12.07,7.59-17.87,1.5-2.04,3.97-5.33,8.36-8.1,3.84-2.42,7.36-3.33,9.9-3.99,2.57-.66,5.71-1.44,9.9-1.29,2.26.09,6.46.29,10.96,2.65,1.87.98,3.14,2.04,5.69,4.16,2.88,2.4,4.79,4.41,6.93,6.68,3.93,4.18,6.64,7.66,7.67,9.01,1.01,1.33,2.21,2.92,3.56,4.92.42.62,1.23,1.83,1.97,3.05,1.11,1.85,1.99,3.65,3.58,7.52,1.83,4.48,3.19,8.26,4.19,11.22.84,2.5,1.54,4.91,2.16,8.06.04.2.07.39.1.59.72,4.39,1.27,7.8-.69,10.3-1.16,1.48-2.68,1.98-4.84,2.69-2.1.69-4.52,1.12-11.57.77-8.82-.44-10.84-1.41-11.59-2.08-.13-.12-.24-.24-.24-.24-1.55-1.64-1.5-3.3-2.24-5.38Zm-14.22-29.85c-.58-.51-2.33-2.04-3.86-1.54-2.27.75-2.43,5.47-2.19,7.84.18,1.78.57,5.62,3.33,6.81,1.42.61,3.44.51,4.64-.64,1.2-1.15,1.07-2.86.9-5.14-.16-2.07-.39-5.19-2.83-7.33Z"/>
  <path class="cls-7" d="m483.61,366.59c-2.36,1.74-.4,8.13.09,9.73,1.72,5.6,3.47,5.75,5.53,10.93.88,2.22,4.22,11.42.26,16.72-.93,1.24-2.45,2.53-2.96,2.96-2.8,2.36-5.4,3.51-5.91,3.73-5.94,2.56-11.46,1.6-13.13,1.25-3.82-.81-5.88-2.36-6.31-2.7-1.18-.92-1.99-1.83-2.24-2.24-1.15-1.88-1.84-3.48-2.24-4.49-2.5-6.17-2.58-11.9-2.24-15.7.2-2.31-.04-3.48,0-4.49.18-4.84.85-7.25-.58-8.41-.66-.53-1.45-.56-1.67-.56-2.03-.06-2.51,2.22-5.15,3.39-.27.12-2.49,1.07-4.84.33-1.1-.35-2.01-1-3.65-2.9-2.85-3.29-4.43-6.32-4.63-6.69-1.56-2.91-3.12-5.83-3.47-9.9-.14-1.66-.4-4.65.9-7.71,1.6-3.78,4.69-5.53,10.8-8.87,7.2-3.94,13.22-5.61,15.43-6.17,5.74-1.47,10.24-1.76,11.95-1.84,2.41-.11,4.33-.05,5.08-.01.67.03,1.38.08,2.27.16,1.67.15,4.81.44,7.57,1.04,4.2.92,7.72,1.69,10.16,4.63,1.28,1.54,1.81,3.14,2.31,4.63.35,1.04.73,2.47,1.03,7.2.25,3.96.38,5.94.13,8.49-.37,3.85-.6,6.2-2.31,7.33-.35.23-1,.56-5.26.34-5.18-.27-6-.85-6.92-.17Z"/>
  <path class="cls-4" d="m181.51,35.89c-5.41-5.58-13.43-12.67-24.38-18.95-12.14-6.96-23.4-10.36-31.44-12.11"/>
  <path class="cls-4" d="m184.85,39.51c1.97,2.04,4.01,4.37,6.05,7,1.17,1.51,2.24,3,3.21,4.44"/>
  <path class="cls-4" d="m333.07,82.01c-5.41-5.58-13.43-12.67-24.38-18.95-12.14-6.96-23.4-10.36-31.44-12.11"/>
  <path class="cls-4" d="m337.23,86.45c1.97,2.04,4.01,4.37,6.05,7,1.17,1.51,2.24,3,3.21,4.44"/>
  <path class="cls-4" d="m479.76,38.89c-5.41-5.58-13.43-12.67-24.38-18.95-12.14-6.96-23.4-10.36-31.44-12.11"/>
  <path class="cls-4" d="m485.6,45.23c1.97,2.04,4.01,4.37,6.05,7,1.17,1.51,2.24,3,3.21,4.44"/>
</svg>